<?xml version="1.0" encoding="UTF-8" standalone="no"?>
<svg xmlns:dc="http://purl.org/dc/elements/1.1/" xmlns:cc="http://creativecommons.org/ns#" xmlns:rdf="http://www.w3.org/1999/02/22-rdf-syntax-ns#" xmlns:svg="http://www.w3.org/2000/svg" xmlns="http://www.w3.org/2000/svg" xmlns:sodipodi="http://sodipodi.sourceforge.net/DTD/sodipodi-0.dtd" xmlns:inkscape="http://www.inkscape.org/namespaces/inkscape" id="svg2" height="46.158794" width="289.97235" version="1.1" sodipodi:docname="learn-latex-logo_1.svg" inkscape:version="1.0 (4035a4fb49, 2020-05-01)">
  <defs id="defs79">
    <clipPath id="clipPath955" clipPathUnits="userSpaceOnUse">
      <g inkscape:label="Clip" id="use957" style="fill:#008080">
        <path style="opacity:0.75;fill:#008080;stroke-width:2.77891" fill="#ffffff" d="M 81.266544,33.173144 C 80.38808,33.231269 80.38808,32.41753 80.38808,31.7904 V 7.6015565 c 0,-0.6516029 0.42661,-1.1838982 0.949145,-1.1838982 h 0.07825 c 0.525059,0 0.949145,0.5322953 0.949145,1.1838982 V 30.57591 c 5.601468,-0.877981 9.791842,-1.13801 14.989419,0.709728 0.812832,0.581242 0.444281,2.02211 -0.419037,1.881388 z" id="path977" />
        <path style="opacity:0.75;fill:#008080;stroke-width:2.77891" fill="#ffffff" d="m 89.250972,2.5875794 c 5.316221,0.3793369 8.390844,2.8052575 8.390844,2.8052575 l -0.0076,23.6840811 C 91.149262,25.766898 84.187184,27.727825 84.187184,27.727825 l 0.0025,-23.895164 c 0,0 1.168761,-1.2450816 5.061264,-1.2450816 z" id="path979" />
        <path style="opacity:0.75;fill:#008080;stroke-width:2.77891" fill="#ffffff" d="m 100.75935,33.170085 c -0.863315,0.137663 -1.229342,-1.300146 -0.41903,-1.881388 5.19757,-1.850797 9.39047,-1.590768 14.98941,-0.709727 V 7.6046157 c 0,-0.6516029 0.42662,-1.1838982 0.94915,-1.1838982 h 0.0782 c 0.52506,0 0.94915,0.5322953 0.94915,1.1838982 V 31.787341 c 0,0.630189 0,1.443928 -0.87847,1.382744 z" id="path981" />
        <path style="opacity:0.75;fill:#008080;stroke-width:2.77891" fill="#ffffff" d="m 113.50717,3.832661 0.003,23.892104 c 0,0 -6.9646,-1.960927 -13.44706,1.349094 l -0.008,-23.6810221 c 0,0 3.07714,-2.4259206 8.39084,-2.8052575 3.8925,0 5.06126,1.2450816 5.06126,1.2450816 z" id="path983" />
      </g>
    </clipPath>
  </defs>
  <sodipodi:namedview fit-margin-bottom="0" fit-margin-right="0" fit-margin-left="0" fit-margin-top="0" inkscape:guide-bbox="true" showguides="true" inkscape:document-rotation="0" pagecolor="#ffffff" bordercolor="#666666" borderopacity="1" objecttolerance="10" gridtolerance="10" guidetolerance="10" inkscape:pageopacity="0" inkscape:pageshadow="2" inkscape:window-width="1280" inkscape:window-height="656" id="namedview77" showgrid="false" inkscape:zoom="1" inkscape:cx="206.93781" inkscape:cy="4.12685" inkscape:window-x="0" inkscape:window-y="0" inkscape:window-maximized="1" inkscape:current-layer="svg2">
    <sodipodi:guide id="guide838" orientation="0,-1" position="175.28751,22.536084" />
  </sodipodi:namedview>
  <metadata id="metadata61">
    <rdf:RDF>
      <cc:Work rdf:about="">
        <dc:format>image/svg+xml</dc:format>
        <dc:type rdf:resource="http://purl.org/dc/dcmitype/StillImage" />
        <dc:title></dc:title>
      </cc:Work>
    </rdf:RDF>
  </metadata>
  <g id="g3049" style="fill:#000000" transform="matrix(4.2767203,0,0,4.2767203,183.48203,6.3805458)">
    <path id="path3051" d="M 5.46,4.23 H 5.21 c -0.1,1.02 -0.24,2.26 -2,2.26 H 2.4 C 1.93,6.49 1.91,6.42 1.91,6.09 V 0.78 c 0,-0.34 0,-0.48 0.94,-0.48 H 3.18 V 0 C 2.82,0.03 1.92,0.03 1.51,0.03 1.12,0.03 0.34,0.03 0,0 V 0.3 H 0.23 C 1,0.3 1.02,0.41 1.02,0.77 V 6.02 C 1.02,6.38 1,6.49 0.23,6.49 H 0 V 6.8 h 5.19 c 0,0 0.27,-2.57 0.27,-2.57 z" style="fill:#000000" transform="translate(0,0.17)" />
    <path id="path3053" d="M 2.81,0.16 C 2.77,0.04 2.75,0 2.62,0 2.49,0 2.46,0.04 2.42,0.16 2.42,0.16 0.81,4.24 0.81,4.24 0.74,4.41 0.62,4.72 0,4.72 V 4.97 H 1.55 V 4.72 c -0.31,0 -0.5,-0.14 -0.5,-0.34 0,-0.05 0.01,-0.07 0.03,-0.14 0,0 0.34,-0.86 0.34,-0.86 H 3.4 c 0,0 0.4,1.02 0.4,1.02 0.02,0.04 0.04,0.09 0.04,0.12 0,0.2 -0.38,0.2 -0.57,0.2 V 4.97 H 5.24 V 4.72 H 5.1 c -0.47,0 -0.52,-0.07 -0.59,-0.27 0,0 -1.7,-4.29 -1.7,-4.29 z m -0.4,0.71 c 0,0 0.89,2.26 0.89,2.26 H 1.52 c 0,0 0.89,-2.26 0.89,-2.26 z" style="fill:#000000" transform="translate(2.48)" />
    <path id="path3055" d="M 6.27,0 H 0.18 C 0.18,0 0,2.24 0,2.24 H 0.24 C 0.38,0.63 0.53,0.3 2.04,0.3 c 0.18,0 0.44,0 0.54,0.02 0.21,0.04 0.21,0.15 0.21,0.38 v 5.25 c 0,0.34 0,0.48 -1.05,0.48 H 1.34 V 6.74 C 1.75,6.71 2.76,6.71 3.22,6.71 c 0.46,0 1.49,0 1.9,0.03 V 6.43 H 4.72 C 3.67,6.43 3.67,6.29 3.67,5.95 V 0.7 c 0,-0.2 0,-0.34 0.18,-0.38 C 3.96,0.3 4.23,0.3 4.42,0.3 c 1.5,0 1.65,0.33 1.79,1.94 H 6.46 C 6.46,2.24 6.27,0 6.27,0 Z" style="fill:#000000" transform="translate(7.03,0.23)" />
    <path id="path3057" d="M 6.16,4.2 H 5.91 C 5.66,5.73 5.43,6.46 3.72,6.46 H 2.4 C 1.93,6.46 1.91,6.39 1.91,6.06 V 3.4 H 2.8 c 0.97,0 1.08,0.32 1.08,1.17 H 4.13 V 1.93 H 3.88 C 3.88,2.78 3.77,3.09 2.8,3.09 H 1.91 V 0.7 C 1.91,0.37 1.93,0.3 2.4,0.3 h 1.28 c 1.53,0 1.79,0.55 1.95,1.94 H 5.88 C 5.88,2.24 5.6,0 5.6,0 H 0 V 0.3 H 0.23 C 1,0.3 1.02,0.41 1.02,0.77 V 5.99 C 1.02,6.35 1,6.46 0.23,6.46 H 0 v 0.31 h 5.74 c 0,0 0.42,-2.57 0.42,-2.57 z" style="fill:#000000" transform="translate(12.5,2.45)" />
    <path id="path3059" d="m 3.76,2.95 c 0,0 1.37,-2 1.37,-2 C 5.34,0.63 5.68,0.31 6.57,0.3 V 0 H 4.19 v 0.3 c 0.4,0.01 0.62,0.23 0.62,0.46 0,0.1 -0.02,0.12 -0.09,0.23 0,0 -1.14,1.68 -1.14,1.68 C 3.58,2.67 2.3,0.75 2.3,0.75 2.28,0.72 2.23,0.64 2.23,0.6 2.23,0.48 2.45,0.31 2.87,0.3 V 0 C 2.53,0.03 1.8,0.03 1.42,0.03 1.11,0.03 0.49,0.02 0.12,0 v 0.3 h 0.19 c 0.55,0 0.74,0.07 0.93,0.35 0,0 1.83,2.77 1.83,2.77 0,0 -1.63,2.41 -1.63,2.41 C 1.3,6.03 1,6.49 0,6.49 V 6.8 H 2.38 V 6.49 C 1.92,6.48 1.75,6.21 1.75,6.03 c 0,-0.09 0.03,-0.13 0.1,-0.24 0,0 1.41,-2.09 1.41,-2.09 0,0 1.58,2.38 1.58,2.38 0.02,0.04 0.05,0.08 0.05,0.11 0,0.12 -0.22,0.29 -0.65,0.3 V 6.8 C 4.59,6.77 5.32,6.77 5.69,6.77 c 0.42,0 0.88,0.01 1.3,0.03 V 6.49 H 6.8 c -0.52,0 -0.73,-0.05 -0.94,-0.36 0,0 -2.1,-3.18 -2.1,-3.18 z" style="fill:#000000" transform="translate(17.91,0.17)" />
  </g>
  <text xml:space="preserve" style="font-style:normal;font-weight:normal;font-size:42.6667px;line-height:1.25;font-family:sans-serif;letter-spacing:0px;word-spacing:0px;fill:#000000;fill-opacity:1;stroke:none" x="-1.4166677" y="36.193668" id="text906"><tspan sodipodi:role="line" id="tspan904" x="-1.4166677" y="36.193668" style="font-style:normal;font-variant:normal;font-weight:normal;font-stretch:normal;font-size:42.6667px;font-family:'CMU Serif';-inkscape-font-specification:'CMU Serif'">Learn</tspan></text>
  <g id="g4516" transform="matrix(0.55369591,0,0,0.55369591,-803.20136,136.31181)" inkscape:export-xdpi="23.616198" inkscape:export-ydpi="23.616198">
    <path sodipodi:nodetypes="csccc" inkscape:connector-curvature="0" id="path4513-6" d="m 1669.7664,-190.07191 c -3.4831,-6e-5 -6.3067,3.45812 -6.3067,7.72402 0,4.2659 2.5563,7.18954 6.3067,7.72402 l 46.9069,10.30393 42.1444,-23.718" style="opacity:1;vector-effect:none;fill:none;fill-opacity:1;stroke:#333333;stroke-width:2.999;stroke-linecap:round;stroke-linejoin:round;stroke-miterlimit:4;stroke-dasharray:none;stroke-dashoffset:0;stroke-opacity:1" />
    <path sodipodi:nodetypes="csccc" inkscape:connector-curvature="0" id="path4513-6-7" d="m 1669.7664,-205.51995 c -3.4831,-6e-5 -6.3067,3.45812 -6.3067,7.72402 0,4.2659 2.5563,7.18954 6.3067,7.72402 l 46.9069,10.30393 42.1444,-23.718" style="opacity:1;vector-effect:none;fill:none;fill-opacity:1;stroke:#333333;stroke-width:2.999;stroke-linecap:round;stroke-linejoin:round;stroke-miterlimit:4;stroke-dasharray:none;stroke-dashoffset:0;stroke-opacity:1" />
    <path sodipodi:nodetypes="csccccc" inkscape:connector-curvature="0" id="path4513-6-7-5-3" d="m 1669.7664,-220.96799 c -3.4831,-6e-5 -6.3067,3.45812 -6.3067,7.72402 0,4.2659 2.5563,7.18954 6.3067,7.72402 l 22.8809,5.02619 m 13.6936,3.00805 10.3324,2.26969 42.1444,-23.718" style="opacity:1;vector-effect:none;fill:none;fill-opacity:1;stroke:#333333;stroke-width:2.999;stroke-linecap:round;stroke-linejoin:round;stroke-miterlimit:4;stroke-dasharray:none;stroke-dashoffset:0;stroke-opacity:1" />
    <path transform="scale(0.26458333)" id="path4513-6-7-5-3-5" d="m 6470.2148,-924.79688 -163.5797,89.64226 181.5797,38.94368 159.2852,-89.64258 z" style="opacity:1;vector-effect:none;fill:#333333;fill-opacity:1;stroke:#333333;stroke-width:11.3348;stroke-linecap:round;stroke-linejoin:round;stroke-miterlimit:4;stroke-dasharray:none;stroke-dashoffset:0;stroke-opacity:1" inkscape:connector-curvature="0" sodipodi:nodetypes="ccccc" />
    <path sodipodi:nodetypes="ccccc" id="path4513-6-7-5-3-5-2" d="m 1715.1438,-235.60505 -10.863,6.14815 17.4451,3.83204 10.8628,-6.14815 z" style="opacity:1;vector-effect:none;fill:#f29d16;fill-opacity:1;stroke:#333333;stroke-width:1.11535;stroke-linecap:round;stroke-linejoin:round;stroke-miterlimit:4;stroke-dasharray:none;stroke-dashoffset:0;stroke-opacity:1" inkscape:connector-curvature="0" />
    <path inkscape:connector-curvature="0" id="path4508" d="m 1696.2626,-208.44866 v 15.68601 l 3.4963,-2.17336 3.8743,4.25223 v -16.53646 z" style="fill:#f49f16;fill-opacity:1;fill-rule:evenodd;stroke:none;stroke-width:0.264583px;stroke-linecap:butt;stroke-linejoin:miter;stroke-opacity:1" />
  </g>
</svg>
